<?xml version="1.0" encoding="UTF-8" standalone="no"?><!DOCTYPE svg PUBLIC "-//W3C//DTD SVG 1.1//EN" "http://www.w3.org/Graphics/SVG/1.1/DTD/svg11.dtd"><svg width="100%" height="100%" viewBox="0 0 2167 1910" version="1.1" xmlns="http://www.w3.org/2000/svg" xmlns:xlink="http://www.w3.org/1999/xlink" xml:space="preserve" xmlns:serif="http://www.serif.com/" style="fill-rule:evenodd;clip-rule:evenodd;stroke-linejoin:round;stroke-miterlimit:2;"><rect id="logo_secundario_fondoClaro" x="0" y="0" width="2166.14" height="1909.84" style="fill:none;"/><g><path d="M1536.96,467.038c244.297,78.145 405.541,212.121 405.541,364.15c0,204.262 -329.151,436.409 -843.364,436.409c-274.594,0 -497.531,-110.545 -497.531,-246.707c0,-130.545 226.382,-247.259 501.603,-246.642c164.648,0.369 319.551,70.635 319.551,154.351c0,85.225 -147.494,154.417 -329.166,154.417c-130.295,0 -243.009,-35.59 -296.341,-87.16c-24.379,16.496 -38.112,35.13 -38.112,54.85c0,67.392 160.391,122.106 357.948,122.106c457.699,0 705.022,-200.407 705.022,-369.321c0,-128.324 -137.615,-241.947 -348.465,-311.19c-0.538,-0.145 -1.067,-0.319 -1.585,-0.519c-0.139,-0.046 -0.279,-0.091 -0.419,-0.137c0.004,-0.009 0.008,-0.018 0.013,-0.027c-3.134,-1.314 -5.813,-3.627 -7.568,-6.664l-80.748,-139.72c-2.822,-4.883 -8.039,-7.893 -13.677,-7.893l-9.995,0c-8.724,0 -15.797,7.073 -15.797,15.803l-0,123.291c-0,8.724 -7.073,15.803 -15.803,15.803l-35.008,-0c-8.724,-0 -15.803,-7.073 -15.803,-15.803l0,-180.829c0,-8.776 7.161,-15.873 15.938,-15.797l22.653,0.194c12.308,0.105 20.007,-13.274 13.731,-23.86l-67.791,-114.332c-6.247,-10.534 1.347,-23.86 13.59,-23.86l127.7,0c17.975,0 35.323,1.768 52.069,5.287c16.734,3.525 31.453,9.433 44.141,17.706c12.688,8.285 22.812,19.386 30.394,33.304c7.577,13.923 11.365,31.284 11.365,52.075c-0,23.614 -4.058,42.643 -12.155,57.093c-8.11,14.456 -19.029,25.64 -32.777,33.567c-6.124,3.531 -12.682,6.558 -19.679,9.076c-9.38,3.372 -13.537,14.28 -8.507,22.881l69.032,118.098Zm-448.562,406.608c-97.073,0 -175.884,24.962 -175.884,55.708c0,30.747 78.811,55.709 175.884,55.709c97.073,-0 175.883,-24.962 175.883,-55.709c0,-30.746 -78.81,-55.708 -175.883,-55.708Zm289.496,-674.649l41.302,68.546c3.911,6.493 11.868,9.233 19.011,6.71c1.253,-0.445 2.489,-0.914 3.712,-1.411c8.631,-3.519 15.674,-8.806 21.143,-15.862c5.457,-7.043 8.191,-16.915 8.191,-29.603c0,-11.628 -2.471,-20.879 -7.401,-27.753c-4.941,-6.874 -11.282,-12.161 -19.029,-15.862c-7.752,-3.7 -16.388,-6.077 -25.903,-7.131c-9.514,-1.06 -18.683,-1.587 -27.489,-1.587c-12.296,0 -19.878,13.42 -13.537,23.953Zm-1110.04,-20.153c-14.392,0.035 -26.084,-11.634 -26.084,-26.037l-0,-5.171c-0,-14.385 11.663,-26.043 26.043,-26.043l119.86,0c14.093,0 28.016,1.68 41.758,5.024c13.742,3.355 25.985,8.812 36.741,16.388c10.744,7.582 19.468,17.36 26.166,29.34c6.693,11.985 10.042,26.43 10.042,43.351c-0,21.143 -5.996,38.591 -17.975,52.333c-11.986,13.742 -27.671,23.613 -47.046,29.603l0,1.06c11.628,1.411 22.466,4.678 32.513,9.778c10.042,5.111 18.585,11.628 25.64,19.562c7.049,7.928 12.594,17.097 16.652,27.489c4.046,10.399 6.077,21.594 6.077,33.568c0,20.44 -4.057,37.449 -12.161,51.015c-8.115,13.572 -18.765,24.498 -31.986,32.777c-13.215,8.285 -28.374,14.193 -45.459,17.712c-17.097,3.524 -34.451,5.287 -52.075,5.287l-108.758,-0c-14.386,-0 -26.044,-11.664 -26.044,-26.044l0,-177.233c0,-14.316 11.558,-25.95 25.874,-26.044l136.599,-0.89c8.654,0 14.351,-3.741 20.528,-9.918l0.053,-0.053c7.301,-7.84 10.955,-17.477 10.955,-28.912c-0,-16.207 -5.733,-28.286 -17.179,-36.214c-11.459,-7.928 -29.867,-11.898 -55.243,-11.898l-8.191,0l-87.3,0.17Zm40.523,178.135l0,55.753c0,14.386 11.664,26.043 26.044,26.043l35.277,0c8.46,0 17.524,-0.527 27.226,-1.587c9.69,-1.059 18.584,-3.519 26.699,-7.401c8.104,-3.876 14.802,-9.426 20.089,-16.651c5.287,-7.22 7.928,-16.998 7.928,-29.34c-0,-19.732 -6.435,-33.48 -19.293,-41.232c-12.869,-7.746 -32.87,-11.628 -60.003,-11.628l-37.923,-0c-14.386,-0 -26.044,11.663 -26.044,26.043Zm263.798,-38.128c-0,-16.57 13.402,-30.019 29.966,-30.072l171.385,-0.609c16.657,-0.058 30.188,13.426 30.188,30.078c0,16.611 -13.466,30.078 -30.077,30.078l-104.777,-0c-16.611,-0 -30.078,13.466 -30.078,30.077l0,34.99c0,16.611 13.467,30.078 30.078,30.078l104.777,-0c16.611,-0 30.077,13.467 30.077,30.077l0,0.112c0,16.611 -13.466,30.077 -30.077,30.077l-171.385,0c-16.61,0 -30.077,-13.466 -30.077,-30.077l-0,-154.809Zm30.077,-129.122c-16.61,-0 -30.077,-13.467 -30.077,-30.084l-0,-0.105c-0,-16.611 13.467,-30.078 30.077,-30.078l171.83,0c16.611,0 30.077,13.467 30.077,30.078l0,0.111c0,16.611 -13.466,30.078 -30.077,30.078l-171.83,-0Zm321.175,303.393c-4.158,1.809 -8.648,2.746 -13.192,2.746l-18.9,0c-23.807,0 -39.838,-24.363 -30.423,-46.232l132.694,-308.03c5.234,-12.15 17.196,-20.019 30.423,-20.019l14.11,0c13.186,0 25.113,7.823 30.377,19.913l133.999,308.031c9.515,21.88 -6.516,46.337 -30.376,46.337l-1.475,0c-13.596,0 -25.81,-8.308 -30.81,-20.955c-13.97,-35.371 -54.47,-52.128 -89.349,-36.981l-127.078,55.19Zm139.081,-127.313c16.248,-7.085 24.036,-25.722 17.659,-42.268l-16.084,-41.735c-10.937,-28.374 -51.126,-28.251 -61.888,0.187l-22.103,58.393c-10.375,27.419 17.355,53.808 44.229,42.086l38.187,-16.663Zm532.881,-219.226l-0.006,-0c0,-13.807 11.189,-24.996 24.996,-24.996l122.5,0c24.661,0 48.456,3.794 71.367,11.365c22.9,7.582 43.164,19.123 60.794,34.627c17.618,15.51 31.717,34.984 42.291,58.416c10.574,23.444 15.862,51.016 15.862,82.733c-0,32.074 -6.078,59.827 -18.239,83.259c-12.161,23.444 -27.847,42.818 -47.046,58.153c-19.216,15.328 -40.534,26.787 -63.967,34.357c-23.437,7.583 -46.436,11.365 -68.99,11.365l-59.898,0c-8.179,0 -15.838,-3.999 -20.51,-10.709l-54.669,-78.493c-2.922,-4.192 -4.485,-9.175 -4.485,-14.287l-0,-245.79Zm116.3,289.019c20.785,-0 40.441,-2.378 58.943,-7.138c18.502,-4.76 34.621,-12.161 48.369,-22.202c13.742,-10.042 24.579,-23.081 32.507,-39.118c7.928,-16.031 11.898,-35.5 11.898,-58.416c-0,-22.548 -3.531,-41.94 -10.574,-58.147c-7.056,-16.207 -16.834,-29.34 -29.34,-39.387c-12.513,-10.042 -27.314,-17.443 -44.405,-22.203c-17.097,-4.76 -35.863,-7.137 -56.303,-7.137l-35.798,-0c-13.806,-0 -24.995,11.189 -24.995,24.995l-0,166.97c-0,4.959 1.475,9.813 4.245,13.929l24.696,36.787c4.643,6.915 12.425,11.067 20.757,11.067Z" style="fill:url(#_Linear1);"/><path d="M556.336,1006.66c4.709,2.382 7.686,7.355 8.724,14.2c1.646,10.866 -1.655,27.442 -2.191,37.738c-1.743,33.545 10.42,66.15 33.617,96.419c35.699,46.583 97.278,87.523 175.533,117.946c3.173,1.234 4.775,4.782 3.602,7.978c-1.173,3.197 -4.689,4.867 -7.908,3.755c-89.266,-30.837 -160.032,-74.817 -201.381,-125.277c-28.251,-34.476 -42.898,-72.032 -40.892,-110.617c0.487,-9.37 2.646,-25.23 8.047,-34.478c2.982,-5.106 6.983,-8.429 11.654,-9.431c3.27,-0.701 7.003,-0.353 11.195,1.767Z" style="fill:url(#_Linear2);"/><path d="M239.376,1090.85c-15.466,-37.869 -13.722,-79.978 -1.083,-121.267c18.737,-61.208 61.436,-120.613 106.399,-161.301c22.748,-20.584 48.676,-40.453 77.612,-59.286c147.512,-96.009 373.397,-165.17 654.364,-165.17c165.727,0 312.717,40.151 403.817,101.76c61.724,41.743 97.88,93.435 97.88,149.114c0,53.391 -36.687,104.754 -99.138,146.847c-92.155,62.113 -240.542,104.335 -406.64,103.963c-99.66,-0.224 -195.76,-25.917 -256.712,-64.61c-41.72,-26.485 -66.997,-59.224 -66.997,-93.909c-0,-35.31 24.09,-68.209 65.466,-94.682c60.432,-38.663 157.931,-63.901 267.867,-63.901c129.615,-0 241.922,35.154 296.751,85.977c21.276,-15.043 33.535,-31.678 33.535,-49.5c-0,-12.488 -6.101,-24.431 -17.075,-35.667c-11.554,-11.829 -28.432,-22.794 -49.617,-32.651c-64.759,-30.128 -169.282,-49.622 -287.089,-49.622c-273.386,-0 -477.11,71.909 -592.898,165.742c-76.222,61.769 -114.211,132.898 -107.976,199.022c5.209,55.251 40.747,62.547 69.319,74.703c16.153,6.872 27.991,19.292 32.674,34.022c4.751,14.944 1.763,30.895 -8.293,43.838c-4.183,5.384 -7.888,10.953 -11.115,16.664c-12.262,21.704 -17.596,45.472 -15.9,69.001c1.542,21.391 8.894,42.578 22.086,61.836c31.811,46.438 91.989,73.701 155.511,70.693c17.814,-0.844 35.195,4.796 47.811,15.429c12.924,10.893 19.646,25.949 18.621,41.329c-3.548,53.211 28.925,103.461 83.687,130.108c54.971,26.749 93.797,26.398 146.901,-2.908c14.888,-8.217 33.224,-10.714 50.414,-6.832c17.363,3.921 31.872,13.964 39.972,27.489c28.74,47.986 77.385,78.92 180.5,76.615c45.15,-1.01 82.639,-4.559 117.357,-38.049c11.101,-10.709 22.301,-22.795 39.29,-26.632c17.242,-3.894 35.965,-1.915 50.558,6.916c81.63,49.398 176.887,22.99 216.213,-3.253c33.778,-22.542 49.155,-67.163 55.863,-83.694c1.717,-4.231 3.202,-6.916 4.108,-7.773l0.915,-0.697l0.956,-0.438l1.071,-0.214l1.227,0.073l0.999,0.33l0.782,0.477l1.189,1.383l0.556,1.517c0.088,0.407 0.164,0.956 0.199,1.641c0.089,1.737 -0.077,4.812 -0.695,8.946c-3.644,24.397 -23.156,88.579 -93.146,126.866c-59.492,32.544 -129.936,33.06 -188.841,0.552c-13.969,-7.709 -31.178,-10.014 -47.307,-6.372c-16.178,3.654 -27.761,14.417 -37.208,25.665c-37.108,44.187 -102.491,80.948 -172.7,80.948c-70.453,0 -134.835,-33.564 -166.584,-86.573c-7.443,-12.429 -20.868,-21.523 -36.823,-25.127c-16.129,-3.642 -33.338,-1.337 -47.308,6.372c-58.809,32.455 -134.287,34.249 -195.164,4.626c-61.325,-29.841 -97.32,-86.35 -93.347,-145.938c0.91,-13.646 -5.205,-26.936 -16.672,-36.6c-11.775,-9.925 -28.026,-15.104 -44.652,-14.317c-70.313,3.33 -136.803,-27.112 -172.015,-78.514c-35.506,-51.831 -33.382,-116.095 5.518,-166.166c1.01,-1.3 1.94,-2.634 2.79,-3.997c6.585,-10.567 8.283,-22.89 4.584,-34.526c-4.245,-13.352 -15.114,-24.475 -29.755,-30.703c-44.257,-18.829 -76.989,-51.324 -92.612,-89.575Zm849.023,-217.207c-97.073,0 -175.884,24.962 -175.884,55.708c0,30.747 78.811,55.709 175.884,55.709c97.073,-0 175.883,-24.962 175.883,-55.709c0,-30.746 -78.81,-55.708 -175.883,-55.708Z" style="fill:url(#_Linear3);"/><path d="M924.66,1314.98l31.21,84.343l84.342,31.209l-84.342,31.21l-31.21,84.343l-31.21,-84.343l-84.342,-31.21l84.342,-31.209l31.21,-84.343Z" style="fill:#ffd458;"/><path d="M453.485,1546.08l19.417,52.473l52.473,19.417l-52.473,19.416l-19.417,52.474l-19.417,-52.474l-52.473,-19.416l52.473,-19.417l19.417,-52.473Z" style="fill:#ffd458;"/><path d="M1642.11,867.51l18.509,50.02l50.021,18.509l-50.021,18.51l-18.509,50.02l-18.509,-50.02l-50.021,-18.51l50.021,-18.509l18.509,-50.02Z" style="fill:#ffd458;"/><circle cx="1490.33" cy="1513.78" r="83.25" style="fill:#00fffb;"/><circle cx="189.329" cy="1261.33" r="70.406" style="fill:#00fffb;"/><circle cx="627.108" cy="839.856" r="27.654" style="fill:#00fffb;"/><circle cx="1247.9" cy="1351.73" r="42.215" style="fill:#00fffb;"/><circle cx="1919.84" cy="558.788" r="44.571" style="fill:#00fffb;"/><path d="M543.509,598.881l0.043,3.506l-0.822,3.154c-0.872,2.198 -2.443,4.405 -4.689,6.401c-5.35,4.755 -15.671,8.643 -21.087,10.165c-206.975,58.133 -354.495,172.189 -381.504,317.702c-0.821,4.42 -4.999,7.393 -9.444,6.718c-4.445,-0.675 -7.553,-4.753 -7.025,-9.218c18.625,-157.458 170.05,-283.57 388.981,-346.831c6.352,-1.835 21.731,-2.577 28.056,-0.148l2.878,1.479l2.074,1.789l1.582,2.299l0.957,2.984Z" style="fill:url(#_Linear4);"/><path d="M1719.57,1217.47l-0.492,-2.932l0.278,-2.75c0.445,-1.955 1.475,-4.008 3.098,-5.973c3.864,-4.68 12.007,-9.281 16.348,-11.26c165.874,-75.626 274.658,-190.38 278.368,-315.825c0.113,-3.81 3.228,-6.844 7.04,-6.857c3.812,-0.013 6.947,3.001 7.086,6.81c4.867,134.364 -105.62,259.729 -280.847,341.206c-5.084,2.364 -17.875,4.985 -23.49,3.773l-2.604,-0.866l-1.97,-1.229l-1.625,-1.72l-1.19,-2.377Z" style="fill:url(#_Linear5);"/><path d="M1657.11,793.954c-4.178,0.69 -8.453,-0.94 -12.208,-4.532c-5.687,-5.439 -10.378,-15.949 -12.025,-20.405c-16.756,-45.348 -58.452,-87.554 -117.619,-123.032c-90.205,-54.09 -220.862,-92.253 -367.719,-101.02c-34.415,-2.054 -68.139,-2.398 -100.843,-1.168c-3.423,0.129 -6.313,-2.523 -6.477,-5.945c-0.165,-3.422 2.456,-6.339 5.876,-6.54c39.579,-2.322 80.779,-2.347 123.007,0.174c145.583,8.691 275.443,45.998 366.76,98.864c61.77,35.76 105.977,78.748 126.091,124.737c2.377,5.435 5.587,19.43 4.325,27.83c-0.49,3.258 -1.641,5.876 -3.18,7.658l-2.614,2.175l-1.632,0.755l-1.742,0.449Z" style="fill:url(#_Linear6);"/></g><defs><linearGradient id="_Linear1" x1="0" y1="0" x2="1" y2="0" gradientUnits="userSpaceOnUse" gradientTransform="matrix(1.0414e-13,1149.65,-1700.74,7.03955e-14,1092.13,117.951)"><stop offset="0" style="stop-color:#231e76;stop-opacity:1"/><stop offset="1" style="stop-color:#00fffb;stop-opacity:1"/></linearGradient><linearGradient id="_Linear2" x1="0" y1="0" x2="1" y2="0" gradientUnits="userSpaceOnUse" gradientTransform="matrix(228.269,280.475,-280.475,228.269,547.736,1004.57)"><stop offset="0" style="stop-color:#00fffb;stop-opacity:1"/><stop offset="1" style="stop-color:#00fffb;stop-opacity:0"/></linearGradient><linearGradient id="_Linear3" x1="0" y1="0" x2="1" y2="0" gradientUnits="userSpaceOnUse" gradientTransform="matrix(8.77485e-14,1208.06,-1433.04,7.39725e-14,944.815,583.829)"><stop offset="0" style="stop-color:#00fffb;stop-opacity:1"/><stop offset="1" style="stop-color:#231e76;stop-opacity:1"/></linearGradient><linearGradient id="_Linear4" x1="0" y1="0" x2="1" y2="0" gradientUnits="userSpaceOnUse" gradientTransform="matrix(-424.629,357.834,-357.834,-424.629,543.552,588.788)"><stop offset="0" style="stop-color:#00fffb;stop-opacity:1"/><stop offset="1" style="stop-color:#00fffb;stop-opacity:0"/></linearGradient><linearGradient id="_Linear5" x1="0" y1="0" x2="1" y2="0" gradientUnits="userSpaceOnUse" gradientTransform="matrix(312.372,-352.095,352.095,312.372,1719.08,1223.97)"><stop offset="0" style="stop-color:#00fffb;stop-opacity:1"/><stop offset="1" style="stop-color:#00fffb;stop-opacity:0"/></linearGradient><linearGradient id="_Linear6" x1="0" y1="0" x2="1" y2="0" gradientUnits="userSpaceOnUse" gradientTransform="matrix(-621.123,-264.526,264.526,-621.123,1661.34,794.109)"><stop offset="0" style="stop-color:#00fffb;stop-opacity:1"/><stop offset="1" style="stop-color:#00fffb;stop-opacity:0"/></linearGradient></defs></svg>